<svg xmlns="http://www.w3.org/2000/svg" viewBox="0 0 109 113"><defs><linearGradient id="a" x1="46.56%" x2="50%" y1="2.48%" y2="95.24%"><stop offset="0%" stop-color="#249361"/><stop offset="100%" stop-color="#3ECF8E"/></linearGradient><linearGradient id="b" x1="34%" x2="54.2%" y1="6.2%" y2="86.6%"><stop offset="0%" stop-color="#1C1C1C"/><stop offset="100%" stop-color="#1C1C1C" stop-opacity="0"/></linearGradient></defs><path d="M63.7 110.3c-2.6 3.3-8.1 1.5-8.2-2.7L53.5 65h40.1c7.3 0 11.3 8.5 6.5 13.9L63.7 110.3z" fill="url(#a)"/><path d="M63.7 110.3c-2.6 3.3-8.1 1.5-8.2-2.7L53.5 65h40.1c7.3 0 11.3 8.5 6.5 13.9L63.7 110.3z" fill="url(#b)" fill-opacity=".2"/><path d="M45.3 2.7c2.6-3.3 8.1-1.5 8.2 2.7L54.8 48H15c-7.3 0-11.3-8.5-6.5-13.9L45.3 2.7z" fill="#3ECF8E"/></svg>