<svg xmlns="http://www.w3.org/2000/svg" viewBox="0 0 128 128"><path d="M64 29.6C47 29.6 36.8 38.1 33.4 55.2c6.1-8.5 13.3-11.7 21.4-9.6 4.7 1.2 8 4.6 11.7 8.4C72.4 60 79.1 67.2 94 67.2c17 0 27.2-8.5 30.6-25.6-6.1 8.5-13.3 11.7-21.4 9.6-4.7-1.2-8-4.6-11.7-8.4C85.6 36.8 78.9 29.6 64 29.6zM33.4 67.2C16.4 67.2 6.2 75.7 2.8 92.8c6.1-8.5 13.3-11.7 21.4-9.6 4.7 1.2 8 4.6 11.7 8.4C41.8 97.6 48.5 104.8 63.4 104.8c17 0 27.2-8.5 30.6-25.6-6.1 8.5-13.3 11.7-21.4 9.6-4.7-1.2-8-4.6-11.7-8.4-5.9-6-12.6-13.2-27.5-13.2z" fill="#06B6D4"/></svg>